<svg width="21" height="21" viewBox="0 0 21 21" fill="none" xmlns="http://www.w3.org/2000/svg">
<g clip-path="url(#clip0_90_1171)">
<path d="M7.97754 0.0779457C7.13262 0.324039 6.47637 0.996695 6.25898 1.83341C6.20566 2.04259 6.19336 2.38302 6.19336 3.91291V5.7422H7.00957H7.82988L7.84219 4.00724L7.85449 2.27638L7.96934 2.08361C8.04316 1.95646 8.1498 1.84982 8.27695 1.77599L8.46973 1.66115H13.5967H18.7236L18.9164 1.77599C19.0436 1.84982 19.1502 1.95646 19.224 2.08361L19.3389 2.27638V10.5V18.7236L19.224 18.9164C19.1502 19.0436 19.0436 19.1502 18.9164 19.224L18.7236 19.3389H13.5967H8.46973L8.27695 19.224C8.1498 19.1502 8.04316 19.0436 7.96934 18.9164L7.85449 18.7236L7.84219 16.9887L7.82988 15.2578H7.00957H6.19336V17.0871C6.19336 19.1215 6.19746 19.1666 6.46816 19.7039C6.66504 20.0977 7.0957 20.5283 7.48945 20.7252C8.06777 21.0164 7.69453 21 13.5967 21C19.4988 21 19.1256 21.0164 19.7039 20.7252C20.0977 20.5283 20.5283 20.0977 20.7252 19.7039C21.0205 19.1133 21 19.8434 21 10.5C21 1.15666 21.0205 1.88673 20.7252 1.29611C20.5283 0.902359 20.0977 0.471695 19.7039 0.27482C19.1256 -0.0163898 19.5029 1.52588e-05 13.5721 0.00411797C8.60508 0.00411797 8.20723 0.0123196 7.97754 0.0779457Z" fill="white"/>
<path d="M9.26953 7.19824L8.6748 7.79297L9.61816 8.73633L10.5615 9.67969H5.27871H0V10.5V11.3203H5.27871H10.5615L9.61816 12.2637L8.6748 13.207L9.28184 13.81L9.88477 14.417L11.8412 12.4564L13.8018 10.5L11.8535 8.55176C10.783 7.48125 9.89707 6.60352 9.88477 6.60352C9.87246 6.60352 9.59766 6.87012 9.26953 7.19824Z" fill="white"/>
</g>
<defs>
<clipPath id="clip0_90_1171">
<rect width="21" height="21" fill="white"/>
</clipPath>
</defs>
</svg>
