<svg width="37" height="37" viewBox="0 0 37 37" fill="none" xmlns="http://www.w3.org/2000/svg">
<path d="M29.2916 6.16667H27.75V4.625C27.75 3.7 27.1333 3.08334 26.2083 3.08334C25.2833 3.08334 24.6666 3.7 24.6666 4.625V6.16667H12.3333V4.625C12.3333 3.7 11.7166 3.08334 10.7916 3.08334C9.86665 3.08334 9.24998 3.7 9.24998 4.625V6.16667H7.70831C5.08748 6.16667 3.08331 8.17084 3.08331 10.7917V12.3333H33.9166V10.7917C33.9166 8.17084 31.9125 6.16667 29.2916 6.16667ZM3.08331 29.2917C3.08331 31.9125 5.08748 33.9167 7.70831 33.9167H29.2916C31.9125 33.9167 33.9166 31.9125 33.9166 29.2917V15.4167H3.08331V29.2917ZM26.2083 18.5C27.1333 18.5 27.75 19.1167 27.75 20.0417C27.75 20.9667 27.1333 21.5833 26.2083 21.5833C25.2833 21.5833 24.6666 20.9667 24.6666 20.0417C24.6666 19.1167 25.2833 18.5 26.2083 18.5ZM26.2083 24.6667C27.1333 24.6667 27.75 25.2833 27.75 26.2083C27.75 27.1333 27.1333 27.75 26.2083 27.75C25.2833 27.75 24.6666 27.1333 24.6666 26.2083C24.6666 25.2833 25.2833 24.6667 26.2083 24.6667ZM18.5 18.5C19.425 18.5 20.0416 19.1167 20.0416 20.0417C20.0416 20.9667 19.425 21.5833 18.5 21.5833C17.575 21.5833 16.9583 20.9667 16.9583 20.0417C16.9583 19.1167 17.575 18.5 18.5 18.5ZM18.5 24.6667C19.425 24.6667 20.0416 25.2833 20.0416 26.2083C20.0416 27.1333 19.425 27.75 18.5 27.75C17.575 27.75 16.9583 27.1333 16.9583 26.2083C16.9583 25.2833 17.575 24.6667 18.5 24.6667ZM10.7916 18.5C11.7166 18.5 12.3333 19.1167 12.3333 20.0417C12.3333 20.9667 11.7166 21.5833 10.7916 21.5833C9.86665 21.5833 9.24998 20.9667 9.24998 20.0417C9.24998 19.1167 9.86665 18.5 10.7916 18.5ZM10.7916 24.6667C11.7166 24.6667 12.3333 25.2833 12.3333 26.2083C12.3333 27.1333 11.7166 27.75 10.7916 27.75C9.86665 27.75 9.24998 27.1333 9.24998 26.2083C9.24998 25.2833 9.86665 24.6667 10.7916 24.6667Z" fill="#585C6D"/>
</svg>
