<svg width="30" height="30" viewBox="0 0 30 30" fill="none" xmlns="http://www.w3.org/2000/svg">
<g clip-path="url(#clip0_81_6)">
<path d="M27.627 0.0410156C28.6465 0.175781 29.502 0.908203 29.8652 1.94531C29.9648 2.24414 29.9707 2.76563 29.9707 15C29.9707 27.2344 29.9648 27.7559 29.8652 28.0547C29.5547 28.9395 28.9922 29.5078 28.0898 29.8594C27.8145 29.9648 27.375 29.9707 15.2637 29.9883C7.25977 30 2.58984 29.9824 2.34961 29.9473C1.32422 29.7891 0.492188 29.0801 0.134766 28.0547C0.0351562 27.7559 0.0292969 27.2344 0.0292969 15C0.0292969 2.76563 0.0351562 2.24414 0.134766 1.94531C0.445312 1.06055 1.00781 0.492188 1.91016 0.140625C2.18555 0.0351562 2.61328 0.0292969 14.8242 0.0234375C21.7676 0.0175781 27.5273 0.0292969 27.627 0.0410156ZM4.39453 3.46289C3.97852 3.66211 3.65625 3.98438 3.46289 4.38867L3.31055 4.7168V13.5938V22.4707L3.46289 22.793C3.66211 23.209 3.98438 23.5313 4.38867 23.7246L4.7168 23.877L9.84375 23.9063L14.9707 23.9355L15.0059 24.7559C15.0293 25.207 15.0762 25.6641 15.1055 25.7754C15.1992 26.0566 15.4453 26.3496 15.6973 26.4844C16.1426 26.707 16.5059 26.7246 20.9766 26.707L25.2832 26.6895L25.6055 26.5371C26.0156 26.3438 26.3438 26.0156 26.5371 25.6055L26.6895 25.2832V15V4.7168L26.5371 4.39453C26.373 4.04883 26.0391 3.67969 25.752 3.52734C25.2773 3.28125 25.5762 3.28711 14.9121 3.29883L4.7168 3.31055L4.39453 3.46289Z" fill="#C0C3D0"/>
<path d="M24.375 8.08594V9.02344H15H5.625V8.08594V7.14844H15H24.375V8.08594Z" fill="#C0C3D0"/>
<path d="M24.375 11.8359V12.7734L18.4688 12.7617L12.5684 12.7441L12.5508 11.8184L12.5332 10.8984H18.457H24.375V11.8359Z" fill="#C0C3D0"/>
<path d="M24.375 15.5859V16.5234L16.5938 16.5117L8.81836 16.4941L8.80078 15.5684L8.7832 14.6484H16.582H24.375V15.5859Z" fill="#C0C3D0"/>
</g>
<defs>
<clipPath id="clip0_81_6">
<rect width="30" height="30" fill="white" transform="matrix(-1 0 0 1 30 0)"/>
</clipPath>
</defs>
</svg>
