<svg width="30" height="30" viewBox="0 0 30 30" fill="none" xmlns="http://www.w3.org/2000/svg">
<path d="M12.9159 29.9314C12.6751 29.8258 12.4344 29.5324 12.364 29.2625C12.3346 29.1452 12.1468 28.3706 11.9413 27.5491C11.7417 26.7276 11.5597 26.0118 11.5303 25.9648C11.5068 25.912 11.3072 25.8123 11.0841 25.7301C10.8669 25.6538 10.4325 25.4778 10.1272 25.337C9.82192 25.1961 9.52838 25.0905 9.48141 25.1023C9.43444 25.114 8.77691 25.5013 8.02544 25.9531C7.27397 26.4108 6.56947 26.798 6.45793 26.8215C6.0411 26.8978 5.88845 26.7863 4.47945 25.3898C3.7456 24.6622 3.0998 23.9757 3.04697 23.8642C2.84736 23.4417 2.92368 23.2481 3.89237 21.6344L4.77886 20.1557L4.58513 19.7274C4.47945 19.4986 4.33268 19.123 4.25049 18.9C4.16243 18.6477 4.06849 18.4776 3.99217 18.4482C3.92759 18.4189 3.12329 18.2135 2.20744 17.9905C0.522505 17.5798 0.358121 17.5211 0.123288 17.1984C0.00587084 17.04 0 16.9637 0 14.9921C0 13.0206 0.00587084 12.9443 0.123288 12.7858C0.358121 12.469 0.522505 12.4044 2.20744 11.9937C3.12329 11.7707 3.92759 11.5653 3.99217 11.536C4.06849 11.5067 4.16243 11.3424 4.25049 11.0842C4.33268 10.8612 4.50294 10.4387 4.64384 10.1395L4.89041 9.60552L4.09198 8.27941C3.43444 7.17627 3.29354 6.90048 3.27006 6.66577C3.25245 6.48387 3.27593 6.32544 3.33464 6.21395C3.48728 5.9323 6.1409 3.32702 6.32877 3.28008C6.72211 3.18619 6.95108 3.28008 8.30137 4.08983L9.61644 4.88197L10.1507 4.63553C10.4442 4.50057 10.8669 4.32454 11.09 4.24826C11.3425 4.16024 11.5127 4.06636 11.5421 3.99008C11.5714 3.92553 11.7769 3.12165 12 2.20628C12.411 0.52223 12.4755 0.357933 12.7926 0.123223C12.9511 0.00586776 13.0274 0 15 0C16.9726 0 17.0489 0.00586776 17.2074 0.123223C17.5245 0.357933 17.589 0.52223 18 2.20628C18.2231 3.12165 18.4286 3.92553 18.4579 3.99008C18.4873 4.06636 18.6517 4.16024 18.91 4.25412C19.1331 4.3304 19.5616 4.50644 19.8669 4.64726L20.4188 4.90545L21.7984 4.07809C23.1018 3.30355 23.1957 3.25661 23.4834 3.25661C23.8943 3.25661 23.9824 3.32702 25.4853 4.84677C26.7886 6.16701 26.9119 6.33718 26.8356 6.73619C26.818 6.8418 26.4305 7.54007 25.9726 8.29701L25.1507 9.67006L25.4149 10.2627C25.5558 10.5913 25.7202 10.9962 25.7847 11.1722C25.8493 11.36 25.9374 11.5067 26.0078 11.536C26.0724 11.5653 26.8767 11.7707 27.7926 11.9937C29.4775 12.4044 29.6419 12.469 29.8767 12.7858C29.9941 12.9443 30 13.0206 30 14.9921C30 16.9637 29.9941 17.04 29.8767 17.1984C29.6419 17.5153 29.4775 17.5798 27.7926 17.9905C26.8767 18.2135 26.0724 18.4189 26.0078 18.4482C25.9315 18.4776 25.8376 18.6477 25.7495 18.9C25.6673 19.123 25.5029 19.5279 25.3796 19.8037C25.2505 20.0736 25.1624 20.3435 25.1742 20.3963C25.1918 20.4491 25.5382 21.0535 25.9432 21.7342C26.8297 23.2011 26.8826 23.3185 26.8297 23.6412C26.7886 23.8583 26.6595 24.0109 25.456 25.2196C24.728 25.959 24.0528 26.6161 23.9589 26.6866C23.8356 26.7746 23.6947 26.8098 23.4834 26.8157C23.1957 26.8157 23.1076 26.7687 21.7867 25.9824C21.0176 25.5189 20.3718 25.1433 20.3425 25.1433C20.319 25.1433 20.0724 25.2431 19.8023 25.3663C19.5382 25.4895 19.1331 25.6538 18.91 25.736C18.6575 25.824 18.4873 25.9179 18.4579 25.9942C18.4286 26.0587 18.2231 26.8626 18 27.778C17.589 29.462 17.5303 29.6263 17.2074 29.861C17.0548 29.9784 16.9609 29.9842 15.0704 29.996C13.5147 30.0077 13.0509 29.996 12.9159 29.9314ZM15.8395 21.0887C18.2759 20.7249 20.2427 19.0115 20.9178 16.6644C21.8571 13.4254 19.9491 10.0221 16.6732 9.07742C13.4325 8.13858 10.0274 10.0456 9.08219 13.3198C7.96673 17.1749 10.8963 21.0946 14.9296 21.1474C15.1996 21.1533 15.6106 21.1239 15.8395 21.0887Z" fill="#585C6D"/>
</svg>
