<svg width="30" height="30" viewBox="0 0 30 30" fill="none" xmlns="http://www.w3.org/2000/svg">
<path d="M11.8315 0.135075C11.7202 0.206165 11.5737 0.376781 11.5092 0.504744C11.392 0.746449 11.392 0.874413 11.392 15C11.392 29.1256 11.392 29.2535 11.5092 29.4953C11.5737 29.6232 11.7202 29.7938 11.8315 29.8649C12.0249 29.9929 12.2183 30 14.9846 30C18.2784 30 18.2139 30.0071 18.466 29.5095L18.6008 29.2535V15V0.746449L18.466 0.490524C18.2139 -0.00710487 18.2784 3.8147e-06 14.9846 3.8147e-06C12.2183 3.8147e-06 12.0249 0.0071125 11.8315 0.135075Z" fill="#585C6D"/>
<path d="M0.467445 7.79859C0.35609 7.86968 0.20957 8.01897 0.145101 8.12561C0.0220245 8.32466 0.0220245 8.33177 0.00444205 18.7536C-0.00727956 28.5782 -0.00141876 29.1967 0.0923541 29.4242C0.150962 29.5592 0.274039 29.737 0.361951 29.8152C0.526053 29.9645 0.584662 29.9645 3.59711 29.9645C6.60957 29.9645 6.66817 29.9645 6.83228 29.8152C6.92019 29.737 7.04327 29.5592 7.09601 29.4242C7.19565 29.1967 7.20151 28.5427 7.20151 18.8389C7.20151 9.13508 7.19565 8.48106 7.09601 8.25357C7.04327 8.1185 6.92019 7.94077 6.83228 7.86257C6.66817 7.71328 6.59785 7.71328 3.66744 7.69196C0.895284 7.67774 0.64913 7.68485 0.467445 7.79859Z" fill="#585C6D"/>
<path d="M23.4534 12.6469C23.1721 12.7322 22.9963 12.8957 22.8849 13.173C22.797 13.4005 22.7911 14.1327 22.7911 21.3483V29.2678L22.9259 29.5095C23.2014 30.0142 23.1135 30.0071 26.4659 29.9858C29.3963 29.9645 29.4666 29.9645 29.6307 29.8152C29.7186 29.737 29.8417 29.5592 29.8944 29.4242C29.9941 29.1967 29.9999 28.6635 29.9999 21.2915C29.9999 13.7275 29.9941 13.3863 29.8886 13.1517C29.83 13.0166 29.6893 12.8389 29.5838 12.7607C29.3904 12.6256 29.2673 12.6185 26.5127 12.6043C24.9362 12.5972 23.553 12.6185 23.4534 12.6469Z" fill="#585C6D"/>
</svg>
